<svg xmlns="http://www.w3.org/2000/svg" xmlns:xlink="http://www.w3.org/1999/xlink"><symbol id="telegram" viewBox="0 0 18 14"><g fill="none">
<path d="M16.2208 0.0975332L1.44582 5.79503C0.437482 6.20003 0.443316 6.76253 1.26082 7.01337L5.05415 8.1967L13.8308 2.6592C14.2458 2.4067 14.625 2.54253 14.3133 2.8192L7.20248 9.2367H7.20082L7.20248 9.23753L6.94082 13.1475C7.32415 13.1475 7.49332 12.9717 7.70831 12.7642L9.55082 10.9725L13.3833 13.8034C14.09 14.1925 14.5975 13.9925 14.7733 13.1492L17.2892 1.29253C17.5466 0.260033 16.895 -0.207467 16.2208 0.0975332Z" fill="#E4E5EA"/>
</g></symbol><symbol id="viber" viewBox="0 0 16 16"><g fill="none">
<path d="M8.77419 0C8.48914 0 8.25806 0.219525 8.25806 0.490323C8.25806 0.76112 8.48914 0.980645 8.77419 0.980645C12.1948 0.980645 14.9677 3.61494 14.9677 6.86452C14.9677 7.13531 15.1988 7.35484 15.4839 7.35484C15.7689 7.35484 16 7.13531 16 6.86452C16 3.07335 12.7649 0 8.77419 0Z" fill="#E4E5EA"/>
<path d="M2.1673 1.59966C2.45986 1.4568 2.97514 1.3844 3.27048 1.64579C3.63965 1.97253 4.20861 2.54529 4.59951 3.04502C4.9904 3.54475 5.53764 4.30588 5.61582 4.47502C5.694 4.64416 5.78086 5.24384 5.38997 5.60518C5.07726 5.89425 4.669 6.15104 4.50395 6.2433C4.35049 6.37143 4.09916 6.74764 4.32154 7.22738C4.59951 7.82706 5.19887 9.00335 6.23256 9.87979C7.26625 10.7562 8.36074 11.2175 9.04698 11.3636C9.09061 11.3636 9.14667 11.3735 9.21164 11.385C9.44413 11.426 9.79062 11.4872 10.0894 11.1868C10.3951 10.8793 10.6742 10.5564 10.7756 10.4333C10.9348 10.2693 11.3975 9.9905 11.9743 10.1873C12.6953 10.4333 13.5205 10.9715 13.894 11.2252C14.1928 11.4282 14.8582 11.9095 15.1536 12.1247C15.3331 12.2554 15.6331 12.6445 15.3968 13.1549C15.1014 13.7931 13.8419 15.2 12.7127 15.2C12.2957 15.2 8.26519 14.116 4.70374 11.0561C2.42881 9.10153 0.47054 5.71025 0.134663 4.56728C0.00726174 4.29563 -0.143304 3.62625 0.273647 3.12191C0.690597 2.61756 1.15968 2.09169 2.1673 1.59966Z" fill="#E4E5EA"/>
<path d="M8.77419 3.92258C8.48914 3.92258 8.25806 4.14211 8.25806 4.4129C8.25806 4.6837 8.48914 4.90323 8.77419 4.90323C9.91439 4.90323 10.8387 5.78133 10.8387 6.86452C10.8387 7.13531 11.0698 7.35484 11.3548 7.35484C11.6399 7.35484 11.871 7.13531 11.871 6.86452C11.871 5.23973 10.4845 3.92258 8.77419 3.92258Z" fill="#E4E5EA"/>
<path d="M8.25806 2.45161C8.25806 2.18082 8.48914 1.96129 8.77419 1.96129C11.6247 1.96129 13.9355 4.15654 13.9355 6.86452C13.9355 7.13531 13.7044 7.35484 13.4194 7.35484C13.1343 7.35484 12.9032 7.13531 12.9032 6.86452C12.9032 4.69813 11.0546 2.94194 8.77419 2.94194C8.48914 2.94194 8.25806 2.72241 8.25806 2.45161Z" fill="#E4E5EA"/>
</g></symbol><symbol id="whatsapp" viewBox="0 0 16 16"><g fill="none">
<path fill-rule="evenodd" clip-rule="evenodd" d="M13.6687 2.32548C12.9307 1.58614 12.0527 0.999906 11.0854 0.60073C10.1181 0.201554 9.08084 -0.0026233 8.03371 2.54441e-05C3.64281 2.54441e-05 0.0683305 3.55666 0.0665556 7.92847C0.0665556 9.32569 0.433055 10.6893 1.12967 11.8923L0 16L4.22318 14.8969C5.39135 15.5298 6.70011 15.8616 8.03016 15.8622H8.03371C12.4237 15.8622 15.9982 12.3056 16 7.93377C16.003 6.89203 15.7985 5.86002 15.3984 4.8974C14.9982 3.93478 14.4104 3.06063 13.6687 2.32548ZM8.03371 14.5242H8.03104C6.84504 14.5243 5.68086 14.2067 4.66067 13.6048L4.41929 13.4617L1.91325 14.1161L2.58147 11.6847L2.4244 11.4356C1.76132 10.385 1.4103 9.16917 1.41187 7.92847C1.41364 4.29501 4.3838 1.33895 8.03637 1.33895C8.90625 1.33703 9.76788 1.50683 10.5714 1.83853C11.3749 2.17023 12.1043 2.65725 12.7174 3.27138C13.3339 3.88259 13.8224 4.60933 14.1549 5.4096C14.4875 6.20986 14.6573 7.06779 14.6547 7.93377C14.6529 11.5672 11.6827 14.5242 8.03371 14.5242ZM11.6659 9.588C11.4662 9.4882 10.4883 9.00951 10.3055 8.94327C10.1236 8.87703 9.99133 8.84435 9.85822 9.04218C9.72511 9.24002 9.34352 9.68603 9.22727 9.81851C9.11102 9.95099 8.99477 9.96689 8.79599 9.86797C8.59721 9.76905 7.95561 9.55974 7.1951 8.88498C6.6032 8.35947 6.20387 7.71121 6.08762 7.51249C5.97137 7.31377 6.0752 7.2069 6.17547 7.10799C6.2651 7.01967 6.37425 6.87659 6.47364 6.76089C6.57303 6.64519 6.60587 6.56305 6.67242 6.43057C6.73898 6.29809 6.70614 6.1824 6.65556 6.08348C6.60587 5.98368 6.20742 5.00863 6.04147 4.61207C5.88085 4.22788 5.71668 4.27911 5.59422 4.27381C5.46739 4.26865 5.34046 4.26629 5.21352 4.26674C5.11258 4.2693 5.01327 4.29259 4.9218 4.33515C4.83033 4.3777 4.74868 4.4386 4.68196 4.51404C4.49916 4.71276 3.98535 5.19145 3.98535 6.1665C3.98535 7.14155 4.69883 8.08392 4.79821 8.2164C4.8976 8.34888 6.2021 10.3493 8.19876 11.2078C8.67441 11.4118 9.04535 11.5337 9.33376 11.6255C9.8103 11.7766 10.2442 11.7545 10.5877 11.7041C10.9701 11.6476 11.7653 11.2254 11.9312 10.7626C12.0971 10.2999 12.0971 9.9033 12.0475 9.82028C11.9978 9.73726 11.8638 9.68692 11.6659 9.588Z" fill="#E4E5EA"/>
</g></symbol></svg>